<?xml version="1.0" encoding="UTF-8"?>
<svg xmlns="http://www.w3.org/2000/svg" width="514" height="514" viewBox="0 0 514 514">
  <defs>
    <style>
      .cls-1, .cls-2 {
        fill: #fff;
      }

      .cls-3 {
        fill: none;
      }

      .cls-3, .cls-2 {
        stroke: #000;
        stroke-width: 8px;
      }

      .cls-4 {
        fill: #e42022;
      }

      .cls-2 {
        stroke-miterlimit: 10;
      }
    </style>
  </defs>
  <g id="BG">
    <rect class="cls-1" width="514" height="514"/>
  </g>
  <g id="logo">
    <g>
      <path class="cls-4" d="M386.2609,344.7272c-6.6447-4.2918-13.109-6.4423-19.3929-6.4531-6.286-.0106-10.878,2.2304-13.78,6.7235-2.8667,4.4383-2.9707,9.6184-.3115,15.5407,2.6592,5.9224,7.1732,10.9418,13.546,15.058,5.9638,3.852,12.159,5.7496,18.5844,5.695,6.424-.0555,11.0344-2.2474,13.8289-6.574,2.9021-4.4931,3.0483-9.705.4427-15.6329-2.5798-5.6755-6.8853-10.461-12.9177-14.3573Z"/>
      <path class="cls-4" d="M481.1864,265.0102l-57.2936-37.0059c-1.5068-.9732-3.5292-.2864-4.1387,1.4007-2.6908,7.4481-5.1239,14.2203-7.3099,20.3444-2.0357-11.1783-7.6366-21.1692-16.8152-29.9696-13.4039-12.8474-32.9069-21.9512-58.509-27.3105-18.2991-3.8305-32.9179-6.0856-43.8576-6.7679-2.5919-.1616-4.8802,1.6771-5.2616,4.2458-4.285,28.8642-7.8274,52.1438-10.6306,69.8651-1.5241-1.6648-3.1865-3.2309-5.0054-4.6857-9.4055-7.4922-21.1608-11.0877-35.2513-10.8083.8793-9.1508.1789-18.8593-2.114-29.1299-6.1483-27.5399-21.5129-46.0404-46.094-55.5036-21.6429-8.3274-48.1114-8.9977-79.4028-2.012-22.3788,4.9963-39.832,9.948-52.362,14.8537-2.9654,1.1611-4.5784,4.3708-3.7137,7.4358,11.2447,39.8589,20.0248,71.4313,26.3398,94.7226l23.4661,88.7277c.8462,3.1997,4.0691,5.1593,7.2993,4.4382l58.9077-13.1509c3.2292-.7209,5.3126-3.8636,4.7192-7.1186l-5.0724-27.8241c-.5739-3.1481,1.3593-6.2172,4.4498-7.0469,5.2122-1.3993,10.1098-3.0881,14.7232-5.0385,2.4377,8.5958,6.9085,16.078,13.4273,22.4391,10.213,9.9721,23.1408,14.6284,38.7825,13.9689,9.7237-.4099,18.2147-2.8954,25.486-7.4351.6991,1.0691,1.803,1.8714,3.1468,2.1527l48.3019,10.1103c2.6142.5472,5.1948-1.0639,5.8512-3.6529l5.1981-20.5051c.6331-2.4972,3.0695-4.1253,5.6098-3.697,19.0327,3.209,35.5096.8649,49.4314-7.033,2.2566-1.28,4.3718-2.6884,6.3769-4.1966-2.6721,6.616-4.9363,12.1646-6.7924,16.6452-.568,1.3711.0382,2.9473,1.3799,3.5815,3.8937,1.8405,7.5511,3.6368,10.9719,5.3884,4.1171,2.1723,7.134,3.7586,9.0507,4.7589,1.2919.6742,2.8616.2267,3.6503-.9986.0057-.0088.0115-.0177.0172-.0266,2.0061-3.106,6.8695-8.2578,14.5936-15.4546,6.9454-6.44,13.8731-12.8541,20.7838-19.2389,13.7784-13.2124,26.4421-24.8919,37.9923-35.0351,1.39-1.2207,1.2221-3.4298-.3319-4.4335ZM168.5892,278.3946c-3.5796,1.3564-7.5252-.8315-8.2522-4.5898l-6.361-32.8834c-.6226-3.2185,1.4269-6.3486,4.6259-7.0648,15.7733-3.5213,25.1461,1.3673,28.116,14.6688,3.1558,14.1366-2.8871,24.0933-18.1287,29.8691ZM249.4123,315.3502c-2.7767,4.6104-6.1263,6.998-10.0489,7.1629-4.0258.17-7.5263-1.8878-10.5037-6.1752-2.6463-3.8139-4.0853-7.9832-4.3174-12.5077-.58-11.3075,3.7913-17.1589,13.1163-17.552,9.5772-.4037,14.6551,5.0095,15.2309,16.2362.2241,4.3622-.935,8.6415-3.4772,12.8358ZM364.9473,280.781c-2.28,10.893-10.0927,15.8337-23.436,14.8201-3.0435-.2312-5.14-3.1702-4.424-6.1373l5.8724-24.3344c.6245-2.5878,3.1809-4.2665,5.7873-3.7247.0154.0032.0307.0064.0461.0096,12.9061,2.7019,18.2916,9.1566,16.1542,19.3666Z"/>
    </g>
    <g>
      <path class="cls-2" d="M483.7221,245.5695c1.554,1.0037,1.7219,3.2128.3319,4.4335-11.5501,10.1432-24.2138,21.8226-37.9922,35.0351-6.9107,6.3848-13.8384,12.7989-20.7838,19.2389-7.7241,7.1968-12.5875,12.3486-14.5936,15.4546-.0057.0089-.0115.0177-.0172.0266-.7888,1.2253-2.3585,1.6727-3.6503.9985-1.9167-1.0003-4.9336-2.5866-9.0507-4.7589-3.4207-1.7516-7.0782-3.5478-10.9719-5.3884-1.3418-.6342-1.9479-2.2104-1.3799-3.5815,4.2447-10.2469,10.6236-26.078,19.1366-47.4932,3.5125-10.4072,9.3595-26.9305,17.5388-49.5703.6095-1.6871,2.6319-2.374,4.1387-1.4007l57.2936,37.0058ZM401.2715,355.2768c-2.7946,4.3267-7.4049,6.5186-13.8289,6.5741-6.4254.0546-12.6206-1.8431-18.5844-5.695-6.3728-4.1162-10.8868-9.1356-13.5461-15.058-2.6592-5.9223-2.5552-11.1024.3115-15.5408,2.9021-4.4931,7.4941-6.7342,13.7801-6.7235,6.2839.0108,12.7482,2.1613,19.3929,6.4531,6.0324,3.8963,10.3378,8.6818,12.9177,14.3573,2.6055,5.9279,2.4593,11.1398-.4428,15.6329Z"/>
      <g>
        <path d="M414.3617,253.9388c-3.8909,18.5865-13.3348,32.134-28.3318,40.6406-13.9218,7.8979-30.3987,10.242-49.4314,7.0331-2.5403-.4283-4.9768,1.1998-5.6098,3.697l-5.1981,20.5051c-.6563,2.5889-3.237,4.2-5.8511,3.6528l-48.3019-10.1103c-2.615-.5474-4.3331-3.0597-3.8945-5.6952l11.4899-69.0525c2.9013-18.1838,6.6689-42.8843,11.3035-74.1027.3813-2.5687,2.6697-4.4075,5.2616-4.2459,10.9397.6822,25.5585,2.9374,43.8576,6.7679,25.6021,5.3593,45.1052,14.4631,58.509,27.3105,15.2231,14.5959,20.6212,32.4613,16.197,53.5997ZM367.483,261.3404c2.1374-10.21-3.2481-16.6647-16.1542-19.3666-.0154-.0032-.0307-.0064-.0461-.0096-2.6064-.5418-5.1628,1.1368-5.7873,3.7247l-5.8724,24.3344c-.716,2.9671,1.3805,5.9061,4.424,6.1373,13.3433,1.0135,21.156-3.9271,23.436-14.8201Z"/>
        <path class="cls-1" d="M414.3617,253.9388c-3.8909,18.5865-13.3348,32.134-28.3318,40.6406-13.9218,7.8979-30.3987,10.242-49.4314,7.0331-2.5403-.4283-4.9768,1.1998-5.6098,3.697l-5.1981,20.5051c-.6563,2.5889-3.237,4.2-5.8511,3.6528l-48.3019-10.1103c-2.615-.5474-4.3331-3.0597-3.8945-5.6952l11.4899-69.0525c2.9013-18.1838,6.6689-42.8843,11.3035-74.1027.3813-2.5687,2.6697-4.4075,5.2616-4.2459,10.9397.6822,25.5585,2.9374,43.8576,6.7679,25.6021,5.3593,45.1052,14.4631,58.509,27.3105,15.2231,14.5959,20.6212,32.4613,16.197,53.5997ZM367.483,261.3404c2.1374-10.21-3.2481-16.6647-16.1542-19.3666-.0154-.0032-.0307-.0064-.0461-.0096-2.6064-.5418-5.1628,1.1368-5.7873,3.7247l-5.8724,24.3344c-.716,2.9671,1.3805,5.9061,4.424,6.1373,13.3433,1.0135,21.156-3.9271,23.436-14.8201Z"/>
        <path class="cls-3" d="M414.3617,253.9388c-3.8909,18.5865-13.3348,32.134-28.3318,40.6406-13.9218,7.8979-30.3987,10.242-49.4314,7.0331-2.5403-.4283-4.9768,1.1998-5.6098,3.697l-5.1981,20.5051c-.6563,2.5889-3.237,4.2-5.8511,3.6528l-48.3019-10.1103c-2.615-.5474-4.3331-3.0597-3.8945-5.6952l11.4899-69.0525c2.9013-18.1838,6.6689-42.8843,11.3035-74.1027.3813-2.5687,2.6697-4.4075,5.2616-4.2459,10.9397.6822,25.5585,2.9374,43.8576,6.7679,25.6021,5.3593,45.1052,14.4631,58.509,27.3105,15.2231,14.5959,20.6212,32.4613,16.197,53.5997ZM367.483,261.3404c2.1374-10.21-3.2481-16.6647-16.1542-19.3666-.0154-.0032-.0307-.0064-.0461-.0096-2.6064-.5418-5.1628,1.1368-5.7873,3.7247l-5.8724,24.3344c-.716,2.9671,1.3805,5.9061,4.424,6.1373,13.3433,1.0135,21.156-3.9271,23.436-14.8201Z"/>
      </g>
      <g>
        <path d="M291.6401,270.8623c.7305,14.2579-3.2877,26.5097-12.0548,36.7534-9.204,10.71-21.3975,16.3837-36.5806,17.0237-15.6416.6596-28.5694-3.9967-38.7825-13.9689-9.6218-9.3891-14.7972-21.2121-15.5286-35.47-.7807-15.226,3.5738-27.3899,13.0638-36.4929,8.956-8.5522,21.0009-13.149,36.1329-13.7865,14.8774-.6269,27.2144,2.9618,37.0101,10.7648,10.3827,8.3049,15.9624,20.0302,16.7397,35.1763ZM255.4252,283.0738c-.5758-11.2268-5.6537-16.64-15.2309-16.2362-9.325.3931-13.6963,6.2445-13.1163,17.552.2321,4.5245,1.6711,8.6938,4.3174,12.5077,2.9774,4.2874,6.478,6.3452,10.5037,6.1752,3.9226-.1649,7.2722-2.5525,10.0489-7.1629,2.5422-4.1943,3.7013-8.4736,3.4772-12.8358Z"/>
        <path class="cls-1" d="M291.6401,270.8623c.7305,14.2579-3.2877,26.5097-12.0548,36.7534-9.204,10.71-21.3975,16.3837-36.5806,17.0237-15.6416.6596-28.5694-3.9967-38.7825-13.9689-9.6218-9.3891-14.7972-21.2121-15.5286-35.47-.7807-15.226,3.5738-27.3899,13.0638-36.4929,8.956-8.5522,21.0009-13.149,36.1329-13.7865,14.8774-.6269,27.2144,2.9618,37.0101,10.7648,10.3827,8.3049,15.9624,20.0302,16.7397,35.1763ZM255.4252,283.0738c-.5758-11.2268-5.6537-16.64-15.2309-16.2362-9.325.3931-13.6963,6.2445-13.1163,17.552.2321,4.5245,1.6711,8.6938,4.3174,12.5077,2.9774,4.2874,6.478,6.3452,10.5037,6.1752,3.9226-.1649,7.2722-2.5525,10.0489-7.1629,2.5422-4.1943,3.7013-8.4736,3.4772-12.8358Z"/>
        <path class="cls-3" d="M291.6401,270.8623c.7305,14.2579-3.2877,26.5097-12.0548,36.7534-9.204,10.71-21.3975,16.3837-36.5806,17.0237-15.6416.6596-28.5694-3.9967-38.7825-13.9689-9.6218-9.3891-14.7972-21.2121-15.5286-35.47-.7807-15.226,3.5738-27.3899,13.0638-36.4929,8.956-8.5522,21.0009-13.149,36.1329-13.7865,14.8774-.6269,27.2144,2.9618,37.0101,10.7648,10.3827,8.3049,15.9624,20.0302,16.7397,35.1763ZM255.4252,283.0738c-.5758-11.2268-5.6537-16.64-15.2309-16.2362-9.325.3931-13.6963,6.2445-13.1163,17.552.2321,4.5245,1.6711,8.6938,4.3174,12.5077,2.9774,4.2874,6.478,6.3452,10.5037,6.1752,3.9226-.1649,7.2722-2.5525,10.0489-7.1629,2.5422-4.1943,3.7013-8.4736,3.4772-12.8358Z"/>
      </g>
      <g>
        <path d="M237.535,195.7479c5.4066,24.2175,1.9943,45.3222-10.2362,63.3134-11.3387,16.6825-28.4148,28.0845-51.2269,34.2086-3.0905.8297-5.0237,3.8988-4.4498,7.0469l5.0724,27.8241c.5934,3.2551-1.49,6.3977-4.7192,7.1186l-58.9077,13.1508c-3.2302.7211-6.453-1.2385-7.2993-4.4381l-23.4661-88.7278c-6.3149-23.2913-15.0951-54.8637-26.3398-94.7226-.8647-3.065.7483-6.2748,3.7137-7.4358,12.5299-4.9058,29.9832-9.8575,52.362-14.8538,31.2915-6.9857,57.7599-6.3154,79.4028,2.012,24.5811,9.4632,39.9458,27.9637,46.094,55.5036ZM189.2536,229.0848c-2.9699-13.3015-12.3427-18.1901-28.116-14.6688h0c-3.1989.7162-5.2485,3.8463-4.6259,7.0648l6.361,32.8834c.727,3.7583,4.6727,5.9462,8.2522,4.5898,15.2416-5.7758,21.2845-15.7325,18.1287-29.8691Z"/>
        <path class="cls-1" d="M237.535,195.7479c5.4066,24.2175,1.9943,45.3222-10.2362,63.3134-11.3387,16.6825-28.4148,28.0845-51.2269,34.2086-3.0905.8297-5.0237,3.8988-4.4498,7.0469l5.0724,27.8241c.5934,3.2551-1.49,6.3977-4.7192,7.1186l-58.9077,13.1508c-3.2302.7211-6.453-1.2385-7.2993-4.4381l-23.4661-88.7278c-6.3149-23.2913-15.0951-54.8637-26.3398-94.7226-.8647-3.065.7483-6.2748,3.7137-7.4358,12.5299-4.9058,29.9832-9.8575,52.362-14.8538,31.2915-6.9857,57.7599-6.3154,79.4028,2.012,24.5811,9.4632,39.9458,27.9637,46.094,55.5036ZM189.2536,229.0848c-2.9699-13.3015-12.3427-18.1901-28.116-14.6688h0c-3.1989.7162-5.2485,3.8463-4.6259,7.0648l6.361,32.8834c.727,3.7583,4.6727,5.9462,8.2522,4.5898,15.2416-5.7758,21.2845-15.7325,18.1287-29.8691Z"/>
        <path class="cls-3" d="M237.535,195.7479c5.4066,24.2175,1.9943,45.3222-10.2362,63.3134-11.3387,16.6825-28.4148,28.0845-51.2269,34.2086-3.0905.8297-5.0237,3.8988-4.4498,7.0469l5.0724,27.8241c.5934,3.2551-1.49,6.3977-4.7192,7.1186l-58.9077,13.1508c-3.2302.7211-6.453-1.2385-7.2993-4.4381l-23.4661-88.7278c-6.3149-23.2913-15.0951-54.8637-26.3398-94.7226-.8647-3.065.7483-6.2748,3.7137-7.4358,12.5299-4.9058,29.9832-9.8575,52.362-14.8538,31.2915-6.9857,57.7599-6.3154,79.4028,2.012,24.5811,9.4632,39.9458,27.9637,46.094,55.5036ZM189.2536,229.0848c-2.9699-13.3015-12.3427-18.1901-28.116-14.6688h0c-3.1989.7162-5.2485,3.8463-4.6259,7.0648l6.361,32.8834c.727,3.7583,4.6727,5.9462,8.2522,4.5898,15.2416-5.7758,21.2845-15.7325,18.1287-29.8691Z"/>
      </g>
    </g>
  </g>
</svg>